<?xml version="1.0" standalone="no"?>
<!DOCTYPE svg PUBLIC "-//W3C//DTD SVG 20010904//EN"
 "http://www.w3.org/TR/2001/REC-SVG-20010904/DTD/svg10.dtd">
<svg version="1.0" xmlns="http://www.w3.org/2000/svg"
 width="335.000000pt" height="372.000000pt" viewBox="0 0 335.000000 372.000000"
 preserveAspectRatio="xMidYMid meet">

<g transform="translate(0.000000,372.000000) scale(0.100000,-0.100000)"
fill="#FF5722" stroke="none">
<path d="M847 3026 c-56 -15 -111 -63 -138 -121 -17 -37 -19 -74 -19 -514 l0
-475 50 56 c94 105 229 191 362 228 234 66 525 19 832 -136 131 -67 169 -95
286 -213 88 -88 113 -121 147 -191 94 -189 108 -376 47 -615 -7 -27 -6 -29 10
-16 53 44 149 212 191 333 52 153 55 200 55 862 0 701 1 687 -76 755 -31 27
-61 43 -95 50 -78 17 -1589 14 -1652 -3z m1583 -218 c0 -57 3 -113 6 -125 5
-19 2 -23 -15 -23 -16 0 -21 6 -21 26 l0 26 -26 -32 c-20 -23 -34 -30 -53 -28
-22 3 -26 9 -29 38 -3 43 40 115 80 133 23 10 28 18 28 49 0 27 4 38 15 38 12
0 15 -18 15 -102z m-1333 -33 c-2 -105 -4 -125 -17 -123 -12 3 -16 24 -18 103
-3 113 2 145 23 145 12 0 14 -21 12 -125z m80 0 c-2 -105 -4 -125 -17 -123
-12 3 -16 24 -18 103 -3 113 2 145 23 145 12 0 14 -21 12 -125z m-169 91 c3
-13 -1 -17 -14 -14 -11 2 -20 11 -22 22 -3 13 1 17 14 14 11 -2 20 -11 22 -22z
m230 0 c3 -13 -1 -17 -14 -14 -11 2 -20 11 -22 22 -3 13 1 17 14 14 11 -2 20
-11 22 -22z m-332 0 c16 -12 17 -18 8 -45 -11 -27 -10 -30 10 -33 37 -5 33
-45 -11 -90 -48 -50 -81 -67 -116 -61 -24 5 -27 9 -25 42 1 20 1 62 0 94 -2
54 -3 57 -21 47 -27 -14 -41 -13 -41 4 0 7 19 20 43 29 81 30 124 33 153 13z
m1022 -44 c4 -29 -21 -58 -62 -73 -30 -11 -31 -13 -27 -61 3 -44 1 -49 -15
-46 -16 3 -20 16 -24 90 -4 75 -7 86 -20 78 -20 -13 -50 -13 -50 0 0 23 56 40
125 37 65 -2 70 -4 73 -25z" />
</g>
</svg>
